PathFileType	4	(X/Y/Z)	Kaydara	
DataRate	CameraRate	NumFrames	NumMarkers	Units	OrigDataRate	OrigDataStartFrame	OrigNumFrames	
120.00	120.00	4	72	mm	120.00	202	268	
Frame#	Time	Hips			RightUpLeg			RightLeg			RightFoot			RightFoot_End			LeftUpLeg			LeftLeg			LeftFoot			LeftFoot_End			Spine			Spine1			Spine2			Spine3			Neck			Head			Head_End			RightShoulder			RightArm			RightForeArm			RightHand			RightHandThumb1			RightHandThumb2			RightHandThumb3			RightHandThumb3_End			RightInHandIndex			RightHandIndex1			RightHandIndex2			RightHandIndex3			RightHandIndex3_End			RightInHandMiddle			RightHandMiddle1			RightHandMiddle2			RightHandMiddle3			RightHandMiddle3_End			RightInHandRing			RightHandRing1			RightHandRing2			RightHandRing3			RightHandRing3_End			RightInHandPinky			RightHandPinky1			RightHandPinky2			RightHandPinky3			RightHandPinky3_End			LeftShoulder			LeftArm			LeftForeArm			LeftHand			LeftHandThumb1			LeftHandThumb2			LeftHandThumb3			LeftHandThumb3_End			LeftInHandIndex			LeftHandIndex1			LeftHandIndex2			LeftHandIndex3			LeftHandIndex3_End			LeftInHandMiddle			LeftHandMiddle1			LeftHandMiddle2			LeftHandMiddle3			LeftHandMiddle3_End			LeftInHandRing			LeftHandRing1			LeftHandRing2			LeftHandRing3			LeftHandRing3_End			LeftInHandPinky			LeftHandPinky1			LeftHandPinky2			LeftHandPinky3			LeftHandPinky3_End			
		X1	Y1	Z1	X2	Y2	Z2	X3	Y3	Z3	X4	Y4	Z4	X5	Y5	Z5	X6	Y6	Z6	X7	Y7	Z7	X8	Y8	Z8	X9	Y9	Z9	X10	Y10	Z10	X11	Y11	Z11	X12	Y12	Z12	X13	Y13	Z13	X14	Y14	Z14	X15	Y15	Z15	X16	Y16	Z16	X17	Y17	Z17	X18	Y18	Z18	X19	Y19	Z19	X20	Y20	Z20	X21	Y21	Z21	X22	Y22	Z22	X23	Y23	Z23	X24	Y24	Z24	X25	Y25	Z25	X26	Y26	Z26	X27	Y27	Z27	X28	Y28	Z28	X29	Y29	Z29	X30	Y30	Z30	X31	Y31	Z31	X32	Y32	Z32	X33	Y33	Z33	X34	Y34	Z34	X35	Y35	Z35	X36	Y36	Z36	X37	Y37	Z37	X38	Y38	Z38	X39	Y39	Z39	X40	Y40	Z40	X41	Y41	Z41	X42	Y42	Z42	X43	Y43	Z43	X44	Y44	Z44	X45	Y45	Z45	X46	Y46	Z46	X47	Y47	Z47	X48	Y48	Z48	X49	Y49	Z49	X50	Y50	Z50	X51	Y51	Z51	X52	Y52	Z52	X53	Y53	Z53	X54	Y54	Z54	X55	Y55	Z55	X56	Y56	Z56	X57	Y57	Z57	X58	Y58	Z58	X59	Y59	Z59	X60	Y60	Z60	X61	Y61	Z61	X62	Y62	Z62	X63	Y63	Z63	X64	Y64	Z64	X65	Y65	Z65	X66	Y66	Z66	X67	Y67	Z67	X68	Y68	Z68	X69	Y69	Z69	X70	Y70	Z70	X71	Y71	Z71	X72	Y72	Z72	

202	1.675	7446.805	859.65103	-201.189	7479.656754099165	837.4649149715015	-242.6747695527586	7402.468680825018	433.6461482262772	-269.7754481235543	7501.504975661565	74.97544198874013	-412.7790808576928	7494.04002611888	-26.888513409731058	-277.7854256092224	7420.711692963386	853.1721767100275	-146.10219817827613	7295.01089233809	464.5798011345357	-56.43328008568029	7219.393653470923	82.01273087843747	88.08602945009521	7283.300209503177	22.97838258165558	255.43137939499155	7415.211418410787	986.2269707378856	-258.1205709295476	7369.717387560963	1061.2126671566375	-298.79116198741707	7316.815477614658	1135.5823734104856	-340.5940323833211	7258.633510102411	1201.0801737438883	-380.10413514379223	7195.303825924751	1270.6486818020137	-418.1895733306827	7149.089094877572	1343.071735973347	-381.8986659223943	7127.050250433725	1436.4659114264218	-257.6439256357539	7221.12144294086	1247.3867798205401	-417.9428168722309	7245.490186324914	1234.7325701303969	-454.95426753307066	7320.671243672753	1087.4744767748377	-395.47049537613	7357.536751708166	1086.1556862912971	-448.1829016139312	7362.0017428306455	1110.9049426835256	-447.62587695469074	7364.130386011244	1127.7452629750958	-455.6149932623551	7366.299927026649	1136.442089187991	-461.53369832297614	7368.69641997548	1141.0995109351556	-466.77163323563855	7365.442565137907	1102.4854845869613	-448.0889264841064	7377.613958116917	1115.4457525058604	-452.54866339327316	7383.050542055485	1123.5335645450104	-459.7049813080376	7383.261161678616	1129.5137494908915	-465.7433313160561	7381.297698442252	1135.1056945978457	-471.81328617935185	7366.743689897881	1093.7469122303348	-449.09210789446877	7379.319944732184	1101.6615361410336	-453.9834676465191	7385.38075058129	1109.290709488062	-461.9153973783343	7385.696466962064	1115.931546500545	-469.2594557773667	7383.578031219221	1121.7710859499612	-475.9297747806216	7367.390055361289	1087.2346082650158	-449.6491066967173	7379.3323299498625	1088.6517844193015	-454.4052443952263	7384.725964814242	1094.0663363057004	-461.43713762961545	7385.08944538545	1099.8160626822773	-468.58394359420674	7383.125511485187	1104.9958932264499	-474.8855199610698	7367.485296411385	1079.4146174252946	-450.4607785233321	7378.627880342625	1075.871535319618	-455.1975939299566	7383.067737552934	1078.2743476995374	-460.99271761506475	7383.391312596045	1081.533183213933	-466.28507897250154	7381.68522736787	1085.583546416848	-471.91297738813864	7211.569974749334	1249.8479233598514	-392.86536368766315	7199.970717693179	1227.6718496653318	-348.37060583157955	7248.893063661182	1115.6026515001288	-406.4526946036595	7319.176517573735	1086.6311822031648	-382.1918323644345	7323.339717773592	1108.520405049126	-381.7894565364756	7333.161944416378	1110.5432953245231	-391.36615772167266	7339.852892206345	1109.3847576227988	-399.63439033346117	7345.303168248467	1106.222697224118	-407.8951752966268	7322.628998953238	1102.8400710399728	-387.02859858889593	7329.76730464982	1111.5306104608653	-402.32660263789967	7337.713672689483	1109.4893274959622	-415.40818096914234	7343.856670229413	1105.1970950786517	-422.38832687069464	7349.752515449935	1099.605194619505	-427.3882810946417	7322.116194753678	1095.1705245168746	-390.96097779220776	7328.800458196771	1099.5008624957113	-408.00852375037846	7337.384429627331	1096.2231465113712	-422.75541714339306	7344.753938267707	1090.5407230079825	-431.40333942713124	7351.1847458398315	1084.177150507935	-436.98436916709863	7321.5419389053195	1089.5973040220083	-393.33758778236336	7326.946685240247	1088.836460346481	-410.6457929087839	7334.329279889533	1084.8985394571941	-423.95522736960123	7341.385064073866	1078.8432829992848	-432.5389856736009	7347.40667506293	1072.5878624956888	-437.9013086406484	7320.908043068766	1082.3936384147405	-395.72206525429533	7325.376753972757	1077.4826643795448	-413.03431157208763	7331.110308357197	1072.6455810509788	-424.3280050995405	7336.17064808117	1067.4143706277757	-430.8966861415023	7341.4552186348365	1061.4043415782605	-435.8238889342381
203	1.683	7446.805	859.65103	-201.189	7478.394429301749	836.9138084030564	-243.15419176309936	7402.474344548027	432.97439141341545	-270.5571243687905	7502.112758768021	75.55541697520361	-415.9593743051098	7495.960833097897	-26.86097694477889	-281.60626543615166	7421.945655669459	853.7269800961163	-145.6022840457554	7296.247710940208	465.22184450998964	-55.5693439602043	7220.271071232876	82.12155135700084	87.52165336994416	7284.382845413586	22.43042541072829	254.57053072651377	7415.41147254272	986.2449714788398	-258.17929646902445	7369.976647513718	1061.3040930439367	-298.75423239550344	7317.133472401838	1135.7687095359552	-340.4183920225201	7258.998739985111	1201.392020250136	-379.7242597055688	7195.716967896997	1271.0859275397788	-417.5679402475067	7149.266129995482	1343.491520103971	-381.5490726902807	7127.470442602902	1437.2027569974005	-257.549317384689	7221.1159290276	1247.4265915495585	-417.3947690133306	7243.8292780796955	1233.370761875767	-453.97924480213436	7316.920115029462	1086.9839274346966	-391.7871058980018	7350.575967524707	1084.0942488653197	-441.3908750843874	7354.890563188655	1108.505688926817	-440.85058299394495	7356.912700438607	1125.0576571732236	-448.4347262189996	7358.973094160341	1133.5638472449511	-454.01719577993185	7361.248674179772	1138.0710460503328	-458.92844863767294	7358.172394761529	1100.0841123156536	-441.1448952078416	7369.827026347857	1112.5954588224972	-445.06701616986936	7375.009813954564	1120.4114042962676	-451.7206694821736	7375.189323046456	1126.2713700749089	-457.461836677988	7373.285555496583	1131.7967270499323	-463.2961497027146	7359.401404867349	1091.3907588340478	-442.01323087026316	7371.434589110664	1098.8919656651992	-446.30731471522785	7377.21074570509	1106.2319518442548	-453.6745280908296	7377.485230352635	1112.7313352310448	-460.65226809101443	7375.430314879816	1118.4997587014414	-467.06097089518687	7360.008602292097	1084.921423321271	-442.4895240473868	7371.426063076008	1086.0041238255185	-446.64279369733396	7376.564590648054	1091.1749139260105	-453.1668424117064	7376.884579677821	1096.7926022070637	-459.9520018648437	7374.978608049116	1101.9076533953337	-466.003658331522	7360.084746752358	1077.1673841848462	-443.2171064267318	7370.729317085998	1073.3565792170336	-447.351791785512	7374.956262846333	1075.5785989028911	-452.71848191190986	7375.243939893512	1078.7480923361798	-457.7365256466654	7373.586797014555	1082.7450811981153	-463.13697492664915	7212.397358682638	1250.5974251002574	-392.3900683669935	7202.300954362087	1229.9230591470364	-347.69635807654345	7249.425507569643	1116.3144562582872	-402.2424143762782	7315.907542039262	1085.1061187947598	-378.1364357151688	7319.753674773248	1106.7054341053522	-377.61046323486335	7329.276758045717	1108.5121593746658	-386.8628878231692	7335.8204715353795	1107.1965734084529	-394.86999953430006	7341.20026495425	1103.8980187938364	-402.88290560273816	7319.247165827646	1100.9599663716872	-382.71738006951693	7326.377586758279	1109.1495616403922	-397.46908535290385	7334.242019243547	1106.8408369990989	-410.14038574232006	7340.242963982425	1102.4710636368259	-416.92007725359434	7345.959773254227	1096.8748320487118	-421.79095515144235	7318.897155095928	1093.2940049288316	-386.5713467566591	7325.661804822498	1097.1376530577402	-403.04364455792745	7334.1777786404455	1093.5703043004467	-417.3342311216445	7341.38617969297	1087.7953861890164	-425.73618015204767	7347.626083992052	1081.4275878956125	-431.1739681234889	7318.439288064495	1087.735134209888	-388.90646526886576	7324.020545435687	1086.5477484030189	-405.6630169235424	7331.365616927238	1082.3604081245974	-418.5668373278354	7338.2775471043005	1076.2175402704852	-426.90914211920574	7344.125132663623	1069.9589081094223	-432.1347949627438	7317.930516514073	1080.5701333084087	-391.2592140207024	7322.6421978563285	1075.28836951421	-408.0456368463289	7328.378849564719	1070.258147943766	-419.00461797885305	7333.350294633463	1064.9662200537587	-425.3923872300302	7338.489934232964	1058.955179919961	-430.1957631793059
204	1.692	7446.805	859.65103	-201.189	7477.126372123049	836.3616458001583	-243.63343703956707	7402.4819701856595	432.30135057039615	-271.34323944293186	7502.715807394861	76.13952913907454	-419.1572483053846	7497.882277561624	-26.832662120297115	-285.4498747736207	7423.185268561185	854.2828380983954	-145.1025021224753	7297.490765101296	465.86487016613114	-54.70581700083358	7221.153496402485	82.23008090158514	86.95386751991988	7285.46905120736	21.879989435445644	253.7056848824849	7415.6122348832805	986.2630463271615	-258.23822165687676	7370.236934906581	1061.3959604232589	-298.7169526271126	7317.453003676915	1135.956160606109	-340.2416478948014	7259.365800036058	1201.7054358200537	-379.34221016117846	7196.132371612356	1271.5253167191213	-416.9428400025405	7149.4459065917235	1343.91446781466	-381.19744713692626	7127.896125012985	1437.9451135557065	-257.45447741478273	7221.11065230093	1247.4672751537403	-416.8429773842519	7242.161385522703	1232.0059133488842	-452.9963923418824	7313.156580325202	1086.497210134004	-388.0851695367935	7343.5881703241275	1082.0252128144011	-434.55788187914146	7347.753167336174	1106.0963847428607	-434.0355162869931	7349.668877005399	1122.3568592746992	-441.21320795619573	7351.619774598788	1130.6702654158753	-446.45790852840946	7353.7738057845945	1135.0254850382341	-451.04076987202257	7350.874578522184	1097.6726486217576	-434.15950923470035	7362.010230822626	1109.7312379675743	-437.541055130564	7366.9379814589465	1117.272432224746	-443.689371471717	7367.086275624135	1123.01053224475	-449.1319979779662	7365.242567204317	1128.4680372232078	-454.7297499918445	7352.030468385368	1089.0247462677594	-434.8917025297616	7363.517874761602	1096.108920432456	-438.58492306442554	7369.007903204825	1103.1566145332206	-445.3843417446641	7369.240970134552	1109.5125782904713	-451.9940472576483	7367.249943419331	1115.2085128738663	-458.1400902712153	7352.597837767418	1082.5986428619156	-435.28645187506845	7363.487467553758	1083.3438612298862	-438.8329176772803	7368.369475278302	1088.2682327371256	-444.8462785676801	7368.645727762163	1093.7520128139274	-451.2680511244992	7366.798033787577	1098.8010062103274	-457.06876613458985	7352.65423767277	1074.9109571540143	-435.9290460009351	7362.797606226924	1070.8299238716706	-439.4574442153297	7366.810329876826	1072.8691136268526	-444.39319116875436	7367.061843372276	1075.947944564511	-449.1355352222377	7365.453872237131	1079.8904517204342	-454.3075656233676	7213.228763052839	1251.349914881794	-391.9127124615459	7204.643075138341	1232.1819374188744	-347.0225063654792	7249.968629675696	1117.0306671966512	-398.01318974868263	7312.629972658366	1083.5780738387962	-374.0586314860496	7316.156522004684	1104.8865678129744	-373.40954490054634	7325.3792692552215	1106.477019424968	-382.33612027361414	7331.775413133902	1105.0042152172355	-390.08069802132087	7337.084868070093	1101.5689440028661	-397.8442752372708	7315.855763713393	1099.0754113204105	-378.3832465484539	7322.978662670715	1106.7620443500082	-392.5862423243788	7330.761432001345	1104.1851846610873	-404.8450245906568	7336.62007265365	1099.738062986582	-411.4230062273992	7342.1573542550495	1094.1380804182595	-416.1638612051149	7315.669881774497	1091.4128824812333	-382.15799327529265	7322.51599391296	1094.7677897009098	-398.05225496770714	7330.9644424023245	1090.9100388798197	-411.8839907952232	7338.011516695951	1085.0428524798651	-420.03840416696823	7344.060020522657	1078.6714602229688	-425.3318914304823	7315.329340815775	1085.8682970741881	-384.45111452265724	7321.088896346765	1084.2524509164273	-400.65308431218966	7328.397033504889	1079.8150110899796	-413.14897611923135	7335.16499235842	1073.584745024162	-421.24826868293354	7340.838129582378	1067.3234928600652	-426.33623125673535	7314.946738801799	1078.7420099399685	-386.77159660101677	7319.903684657873	1073.0876989601127	-403.0291881890277	7325.644173803036	1067.8637878858667	-413.6514645353559	7330.526768578007	1062.5112948261815	-419.8571178265575	7335.521177375582	1056.499765876044	-424.53572455445624
205	1.7	7446.805	859.65103	-201.189	7475.852894109884	835.8085692790969	-244.11236731535723	7402.491555941871	431.6271947369734	-272.13354085847084	7503.314004803004	76.72764043690125	-422.3718169916178	7499.803924123781	-26.803567740388964	-289.3152072615624	7424.430226493953	854.8396077532393	-144.60299511622893	7298.739729136996	466.508723450257	-53.84291148863125	7222.040674946647	82.33832578507386	86.3828609080462	7286.558541894041	21.32724675317452	252.8370993226894	7415.813658695336	986.2811901899362	-258.29733502511647	7370.498191445629	1061.488249667638	-298.67933229041836	7317.774001586821	1136.1446874744377	-340.0638407151799	7259.734613801579	1202.020358462542	-378.95807416159187	7196.549954106886	1271.9667646158196	-416.31441627841156	7149.628411147176	1344.3404998310964	-380.8438602628557	7128.32721085152	1438.6928204124627	-257.3594149209	7221.1056331226255	1247.5088510416833	-416.28755645233235	7240.486949918356	1230.6384456036062	-452.00588019978863	7309.38174527068	1086.0146139425583	-384.3655263810017	7336.575371308044	1079.9495645384973	-427.6855827262531	7340.591584260125	1103.678150351784	-427.1823013951573	7342.40097771066	1119.6441088122187	-433.952152549447	7344.242067122037	1127.7626636284247	-438.85763110315867	7346.273956030878	1131.9642125433827	-443.1104740513408	7343.551200194686	1095.2522193092518	-427.1344477330042	7354.165801280588	1106.8544059627422	-429.97258531471954	7358.837356026352	1114.1180808898043	-435.61301749121617	7358.954348212583	1119.7327197538802	-440.7558193516182	7357.171054150837	1125.1211369057369	-446.11614973594095	7344.632995712731	1086.6499856339733	-427.7292487342426	7355.572076351677	1093.3136891303755	-430.8181665717449	7360.774590574393	1100.0661108317377	-437.04685460818314	7360.9660764800865	1106.276749482902	-443.2869015117507	7359.039298873605	1111.898852345119	-449.16930656437336	7345.159895888953	1080.267362929827	-428.04164557949116	7355.518837638281	1080.672239283756	-430.9775293319189	7360.142997350997	1085.347641067384	-436.4774888999172	7360.375292008792	1090.6956996662793	-442.5342259097356	7358.58618429685	1095.6773843780543	-448.08304085296805	7345.195918233256	1072.6464080817714	-428.5983849193399	7354.835054063692	1068.2927611926707	-431.51650257826776	7358.6323172517305	1070.1471632136995	-436.018908890735	7358.8474212332785	1073.1340501868085	-440.48424208364577	7357.288846553192	1077.0209912258838	-445.42694190636826	7214.063997874555	1252.1052171550407	-391.43341635956085	7206.996501413826	1234.4479187316674	-346.34928394437264	7250.522354761006	1117.751227864559	-393.7661412126688	7309.344694279331	1082.0477857657222	-369.9594208201617	7312.549265112946	1103.0646430471643	-369.1877037688187	7321.47058039786	1104.4387836732726	-377.786920538667	7327.71886757474	1102.808644657593	-385.2676082742671	7332.958152004499	1099.236482186498	-392.78046531460507	7312.455738577392	1097.1872711286976	-374.0272452051339	7319.571510318305	1104.3691058625236	-387.67924654453407	7327.272922856992	1101.5235127919	-399.52336707381795	7332.9890487852845	1096.9992599836419	-405.89842799924514	7338.346357814847	1091.396103602856	-410.50834003747553	7312.4352681769105	1089.528024753367	-377.72199588174215	7319.363921589111	1092.392318824312	-393.03557318429	7327.745347067454	1088.2435000314013	-406.4060234832957	7334.630921099674	1082.2843011215277	-414.31139445138024	7340.487576845309	1075.909943394127	-419.45955201758966	7312.212952346006	1083.9976575818973	-379.9726330369343	7318.152561753684	1081.9515919617231	-395.6172342529677	7325.424372396277	1077.2634619224373	-407.7029816293427	7332.048282845998	1070.9460389184699	-415.55775885230867	7337.546593648877	1064.6827551134675	-420.50704007730076	7311.957522036671	1076.910121983284	-382.26032855079995	7317.161970328988	1070.881646702231	-397.9862223460498	7322.9070411643415	1065.4635648699882	-408.2698855585704	7327.700854000959	1060.0506786250512	-414.29226169679146	7332.549768770508	1054.039179749104	-418.8451839668276
